<mxfile host="app.diagrams.net" modified="2023-09-25T12:48:45.856Z" agent="Mozilla/5.0 (Windows NT 10.0; Win64; x64) AppleWebKit/537.36 (KHTML, like Gecko) Chrome/116.0.0.0 Safari/537.36" version="21.8.2" etag="Abc5DYZzfMEeJyDxaDsB" type="github">
  <diagram name="PÃ¡gina-1" id="M0oZoFBCe4oD1w9xCgiN">
    <mxGraphModel>
      <root>
        <mxCell id="0" />
        <mxCell id="1" parent="0" />
      </root>
    </mxGraphModel>
  </diagram>
</mxfile>
